<svg xmlns="http://www.w3.org/2000/svg" shape-rendering="crispEdges" height="40" width="40" viewBox="0 0 25 25" id="qrCode"><path fill="#001529" d="M0,0 h25v25H0z"></path><path fill="#fafafa" d="M0 0h7v1H0zM8 0h1v1H8zM11 0h3v1H11zM18,0 h7v1H18zM0 1h1v1H0zM6 1h1v1H6zM9 1h2v1H9zM13 1h2v1H13zM16 1h1v1H16zM18 1h1v1H18zM24,1 h1v1H24zM0 2h1v1H0zM2 2h3v1H2zM6 2h1v1H6zM10 2h1v1H10zM12 2h2v1H12zM15 2h1v1H15zM18 2h1v1H18zM20 2h3v1H20zM24,2 h1v1H24zM0 3h1v1H0zM2 3h3v1H2zM6 3h1v1H6zM12 3h2v1H12zM16 3h1v1H16zM18 3h1v1H18zM20 3h3v1H20zM24,3 h1v1H24zM0 4h1v1H0zM2 4h3v1H2zM6 4h1v1H6zM9 4h1v1H9zM11 4h1v1H11zM14 4h1v1H14zM16 4h1v1H16zM18 4h1v1H18zM20 4h3v1H20zM24,4 h1v1H24zM0 5h1v1H0zM6 5h1v1H6zM10 5h1v1H10zM12 5h1v1H12zM14 5h1v1H14zM16 5h1v1H16zM18 5h1v1H18zM24,5 h1v1H24zM0 6h7v1H0zM8 6h1v1H8zM10 6h1v1H10zM12 6h1v1H12zM14 6h1v1H14zM16 6h1v1H16zM18,6 h7v1H18zM8 7h1v1H8zM10 7h2v1H10zM13 7h1v1H13zM0 8h2v1H0zM3 8h2v1H3zM6 8h1v1H6zM9 8h4v1H9zM14 8h1v1H14zM16 8h1v1H16zM18 8h1v1H18zM24,8 h1v1H24zM0 9h1v1H0zM4 9h1v1H4zM7 9h1v1H7zM9 9h1v1H9zM12 9h1v1H12zM15 9h1v1H15zM17 9h1v1H17zM19 9h5v1H19zM2 10h1v1H2zM6 10h3v1H6zM10 10h2v1H10zM13 10h3v1H13zM17 10h5v1H17zM24,10 h1v1H24zM0 11h1v1H0zM4 11h2v1H4zM7 11h4v1H7zM14 11h1v1H14zM17 11h1v1H17zM21,11 h4v1H21zM0 12h3v1H0zM5 12h3v1H5zM9 12h1v1H9zM12 12h1v1H12zM15 12h1v1H15zM18 12h1v1H18zM24,12 h1v1H24zM0 13h1v1H0zM2 13h1v1H2zM4 13h1v1H4zM7 13h1v1H7zM9 13h1v1H9zM11 13h2v1H11zM14 13h3v1H14zM20 13h1v1H20zM23 13h1v1H23zM0 14h4v1H0zM5 14h2v1H5zM8 14h1v1H8zM10 14h1v1H10zM13 14h1v1H13zM15 14h4v1H15zM20,14 h5v1H20zM0 15h1v1H0zM2 15h2v1H2zM8 15h1v1H8zM10 15h1v1H10zM14 15h2v1H14zM17 15h1v1H17zM19 15h1v1H19zM21 15h2v1H21zM24,15 h1v1H24zM0 16h1v1H0zM2 16h2v1H2zM5 16h3v1H5zM10 16h2v1H10zM13 16h1v1H13zM16 16h5v1H16zM22 16h2v1H22zM8 17h2v1H8zM13 17h1v1H13zM16 17h1v1H16zM20 17h1v1H20zM22 17h2v1H22zM0 18h7v1H0zM9 18h1v1H9zM11 18h2v1H11zM14 18h1v1H14zM16 18h1v1H16zM18 18h1v1H18zM20 18h1v1H20zM24,18 h1v1H24zM0 19h1v1H0zM6 19h1v1H6zM9 19h5v1H9zM16 19h1v1H16zM20 19h1v1H20zM23 19h1v1H23zM0 20h1v1H0zM2 20h3v1H2zM6 20h1v1H6zM8 20h2v1H8zM14 20h7v1H14zM0 21h1v1H0zM2 21h3v1H2zM6 21h1v1H6zM8 21h4v1H8zM14 21h1v1H14zM17 21h2v1H17zM23,21 h2v1H23zM0 22h1v1H0zM2 22h3v1H2zM6 22h1v1H6zM10 22h3v1H10zM14 22h1v1H14zM16 22h2v1H16zM20,22 h5v1H20zM0 23h1v1H0zM6 23h1v1H6zM8 23h1v1H8zM14 23h1v1H14zM18 23h3v1H18zM22,23 h3v1H22zM0 24h7v1H0zM8 24h1v1H8zM10 24h1v1H10zM12 24h1v1H12zM14 24h1v1H14zM16 24h1v1H16zM18 24h1v1H18zM21 24h1v1H21zM24,24 h1v1H24z"></path></svg>